<?xml version="1.0" standalone="yes"?>

<svg version="1.1" viewBox="0.0 0.0 154.0 100.0" fill="none" stroke="none" stroke-linecap="square" stroke-miterlimit="10" xmlns="http://www.w3.org/2000/svg" xmlns:xlink="http://www.w3.org/1999/xlink"><clipPath id="p.0"><path d="m0 0l154.0 0l0 100.0l-154.0 0l0 -100.0z" clip-rule="nonzero"></path></clipPath><g clip-path="url(#p.0)"><path fill="#000000" fill-opacity="0.0" d="m0 0l154.06299 0l0 100.0l-154.06299 0z" fill-rule="nonzero"></path><path fill="#ffffff" d="m0 0l154.07874 0l0 99.685036l-154.07874 0z" fill-rule="nonzero"></path><path fill="#ffffff" d="m20.0 18.015749l44.755905 0l0 63.65354l-44.755905 0z" fill-rule="nonzero"></path><path stroke="#000000" stroke-width="2.0" stroke-linejoin="round" stroke-linecap="butt" d="m20.0 18.015749l44.755905 0l0 63.65354l-44.755905 0z" fill-rule="nonzero"></path><path fill="#ffffff" d="m89.335625 18.015749l44.755898 0l0 63.65354l-44.755898 0z" fill-rule="nonzero"></path><path stroke="#000000" stroke-width="2.0" stroke-linejoin="round" stroke-linecap="butt" d="m89.335625 18.015749l44.755898 0l0 63.65354l-44.755898 0z" fill-rule="nonzero"></path><path fill="#000000" fill-opacity="0.0" d="m33.107563 35.305645l27.11811 0" fill-rule="nonzero"></path><path stroke="#000000" stroke-width="2.0" stroke-linejoin="round" stroke-linecap="butt" d="m33.107563 35.305645l27.11811 0" fill-rule="nonzero"></path><path fill="#ff0000" d="m20.952755 18.976377l42.866142 0l0 3.2125988l-42.866142 0z" fill-rule="nonzero"></path><path fill="#000000" fill-opacity="0.0" d="m69.244514 49.843834l15.590553 0" fill-rule="nonzero"></path><path stroke="#000000" stroke-width="1.0" stroke-linejoin="round" stroke-linecap="butt" d="m69.244514 49.843834l9.590553 0" fill-rule="evenodd"></path><path fill="#000000" stroke="#000000" stroke-width="1.0" stroke-linecap="butt" d="m78.83507 51.495564l4.5380936 -1.6517296l-4.5380936 -1.6517334z" fill-rule="evenodd"></path><path fill="#ff0000" d="m23.93983 34.152332l5.4803143 0l0 5.4803123l-5.4803143 0z" fill-rule="nonzero"></path><path fill="#4a86e8" d="m90.28084 18.976377l42.86615 0l0 3.2125988l-42.86615 0z" fill-rule="nonzero"></path><path fill="#000000" fill-opacity="0.0" d="m33.107563 40.690933l22.960629 0" fill-rule="nonzero"></path><path stroke="#000000" stroke-width="2.0" stroke-linejoin="round" stroke-linecap="butt" d="m33.107563 40.690933l22.960629 0" fill-rule="nonzero"></path><path fill="#000000" fill-opacity="0.0" d="m33.107563 46.050247l27.11811 0" fill-rule="nonzero"></path><path stroke="#000000" stroke-width="2.0" stroke-linejoin="round" stroke-linecap="butt" d="m33.107563 46.050247l27.11811 0" fill-rule="nonzero"></path><path fill="#000000" fill-opacity="0.0" d="m33.10625 56.636353l27.11811 0" fill-rule="nonzero"></path><path stroke="#000000" stroke-width="2.0" stroke-linejoin="round" stroke-linecap="butt" d="m33.10625 56.636353l27.11811 0" fill-rule="nonzero"></path><path fill="#ff0000" d="m23.938519 55.48304l5.4803143 0l0 5.480316l-5.4803143 0z" fill-rule="nonzero"></path><path fill="#000000" fill-opacity="0.0" d="m33.10625 62.02164l22.960629 0" fill-rule="nonzero"></path><path stroke="#000000" stroke-width="2.0" stroke-linejoin="round" stroke-linecap="butt" d="m33.10625 62.02164l22.960629 0" fill-rule="nonzero"></path><path fill="#000000" fill-opacity="0.0" d="m103.02095 35.305645l27.118103 0" fill-rule="nonzero"></path><path stroke="#000000" stroke-width="2.0" stroke-linejoin="round" stroke-linecap="butt" d="m103.02095 35.305645l27.118103 0" fill-rule="nonzero"></path><path fill="#4a86e8" d="m93.85322 34.152332l5.480316 0l0 5.4803123l-5.480316 0z" fill-rule="nonzero"></path><path fill="#000000" fill-opacity="0.0" d="m103.02095 40.690933l22.960625 0" fill-rule="nonzero"></path><path stroke="#000000" stroke-width="2.0" stroke-linejoin="round" stroke-linecap="butt" d="m103.02095 40.690933l22.960625 0" fill-rule="nonzero"></path><path fill="#000000" fill-opacity="0.0" d="m103.02095 46.050247l27.118103 0" fill-rule="nonzero"></path><path stroke="#000000" stroke-width="2.0" stroke-linejoin="round" stroke-linecap="butt" d="m103.02095 46.050247l27.118103 0" fill-rule="nonzero"></path><path fill="#000000" fill-opacity="0.0" d="m103.01964 56.636353l27.118103 0" fill-rule="nonzero"></path><path stroke="#000000" stroke-width="2.0" stroke-linejoin="round" stroke-linecap="butt" d="m103.01964 56.636353l27.118103 0" fill-rule="nonzero"></path><path fill="#4a86e8" d="m93.851906 55.48304l5.480316 0l0 5.480316l-5.480316 0z" fill-rule="nonzero"></path><path fill="#000000" fill-opacity="0.0" d="m103.01964 62.02164l22.960625 0" fill-rule="nonzero"></path><path stroke="#000000" stroke-width="2.0" stroke-linejoin="round" stroke-linecap="butt" d="m103.01964 62.02164l22.960625 0" fill-rule="nonzero"></path></g></svg>

